Coordinates
version=1
nRows=29
nColumns=24
inDegrees=yes

Units are S.I. units (second, meters, Newtons, ...)
Angles are in degrees.

endheader
time	pelvis_tilt	pelvis_list	pelvis_rotation	pelvis_tx	pelvis_ty	pelvis_tz	hip_flexion_r	hip_adduction_r	hip_rotation_r	knee_angle_r	ankle_angle_r	subtalar_angle_r	mtp_angle_r	hip_flexion_l	hip_adduction_l	hip_rotation_l	knee_angle_l	ankle_angle_l	subtalar_angle_l	mtp_angle_l	lumbar_extension	lumbar_bending	lumbar_rotation
      0.92933333	     -3.13725194	     -8.39788955	     -4.75613901	     -0.23213859	      0.99769790	      0.30869903	     -7.30471483	     10.14396297	     -3.47061172	    -10.07038734	      6.25847651	     -6.65871346	     -1.64736345	     27.09065927	     -9.80732060	    -10.95924873	     -3.80775725	     -1.71094517	     -7.05279055	     -1.58764900	    -10.31117123	     10.40742256	      8.97115427
      0.93350000	     -3.12594939	     -8.42846215	     -4.84102937	     -0.22624342	      0.99700655	      0.30866925	     -7.46487849	     10.08877429	     -3.42547444	    -10.53899731	      6.42715967	     -6.50562637	     -1.59604652	     26.95543883	     -9.81185533	    -10.78638520	     -3.63707765	     -1.66719544	     -7.02446671	     -1.54987081	    -10.31592314	     10.37779664	      8.98720555
      0.93766667	     -3.05571079	     -8.36108431	     -4.96194989	     -0.22021582	      0.99652411	      0.30864741	     -7.65782202	      9.89753702	     -3.43736466	    -11.05829803	      6.55526328	     -6.11978163	     -1.46987404	     26.70038823	     -9.72629356	    -10.67967686	     -3.47317088	     -1.70106842	     -7.08185760	     -1.46736824	    -10.37310771	     10.23204682	      9.09049452
      0.94183333	     -2.95256383	     -8.30006476	     -5.08849388	     -0.21424260	      0.99613073	      0.30868555	     -7.85682693	      9.71710820	     -3.40570502	    -11.62854087	      6.66097438	     -5.88109789	     -1.31177070	     26.42647847	     -9.65769205	    -10.58517050	     -3.42005736	     -1.71828730	     -7.17262499	     -1.37207118	    -10.47840208	     10.07934835	      9.18263812
      0.94600000	     -2.90804098	     -8.26737242	     -5.19290495	     -0.20831635	      0.99564539	      0.30877557	     -7.96873669	      9.58928894	     -3.34792007	    -12.23909718	      6.71688032	     -5.79817645	     -1.25009067	     26.26803916	     -9.62597068	    -10.47153251	     -3.52869474	     -1.67194634	     -7.23206405	     -1.33722182	    -10.52062770	      9.95143717	      9.20246945
      0.95016667	     -2.74816072	     -8.11776236	     -5.36308189	     -0.20223826	      0.99550031	      0.30893353	     -8.17834583	      9.29527424	     -3.29061792	    -12.88901371	      6.75846357	     -5.44795749	     -0.99429245	     25.88910141	     -9.49032988	    -10.45568183	     -3.55495713	     -1.83555977	     -7.41212729	     -1.20594170	    -10.68450471	      9.65604456	      9.43169097
      0.95433333	     -2.53298914	     -7.98833823	     -5.52429027	     -0.19618891	      0.99547054	      0.30911575	     -8.42396558	      9.02439350	     -3.20616666	    -13.57497986	      6.75167715	     -5.27985743	     -0.44804955	     25.46408733	     -9.37515225	    -10.43433667	     -3.67000172	     -1.89041732	     -7.58280328	     -0.93166223	    -10.90840365	      9.38313947	      9.63827565
      0.95850000	     -2.51076634	     -7.89988650	     -5.70006631	     -0.19023981	      0.99513494	      0.30937508	     -8.40838697	      8.82588481	     -3.08578635	    -14.36809922	      6.74141691	     -5.13499913	     -0.32265010	     25.31014057	     -9.32929404	    -10.41326906	     -3.94397437	     -1.99158887	     -7.74349716	     -0.87537380	    -10.93078959	      9.17414814	      9.60035543
      0.96266667	     -2.41567170	     -7.74881168	     -5.88060245	     -0.18420071	      0.99498403	      0.30960518	     -8.43689780	      8.53842286	     -3.01224467	    -15.21096131	      6.68832464	     -4.92479299	     -0.14467694	     25.03907358	     -9.21031333	    -10.42150544	     -4.19537339	     -2.16708358	     -8.00491431	     -0.79990731	    -11.00897356	      8.88101307	      9.72321363
      0.96683333	     -2.28993064	     -7.59565046	     -6.05597915	     -0.17816024	      0.99493694	      0.30982941	     -8.46672295	      8.24373209	     -2.93895795	    -16.09819038	      6.55627212	     -4.74809534	      0.07398353	     24.73200302	     -9.08658518	    -10.44117023	     -4.47146140	     -2.39615796	     -8.28408251	     -0.71152528	    -11.12778197	      8.58054581	      9.86392742
      0.97100000	     -2.06762262	     -7.43838790	     -6.26701659	     -0.17211095	      0.99512241	      0.31017811	     -8.57105128	      7.92797970	     -2.84187689	    -17.01116401	      6.28025308	     -4.67188201	      6.90829824	     24.31138190	     -8.98326944	    -10.62601171	     -4.78077214	     -2.65284253	     -8.44840349	      2.08924909	    -11.35925680	      8.24636283	     10.15448883
      0.97516667	     -1.99583947	     -7.27579654	     -6.40601310	     -0.16606807	      0.99504576	      0.31034536	     -8.46276788	      7.63303856	     -2.80951081	    -18.02262607	      6.02843264	     -4.58503781	      6.93685822	     24.08823452	     -8.83842533	    -10.61755433	     -5.13894828	     -2.93121661	     -8.82056361	      2.09833453	    -11.39958898	      7.93840169	     10.13475819
      0.97933333	     -1.89794041	     -7.10326577	     -6.55165164	     -0.16004810	      0.99505353	      0.31048931	     -8.33265061	      7.31190638	     -2.80254133	    -19.11081302	      5.74334946	     -4.40377950	      6.99773622	     23.83557498	     -8.68500624	    -10.65210024	     -5.51137562	     -3.25733354	     -9.18634402	      2.11316425	    -11.47681072	      7.62003710	     10.20975832
      0.98350000	     -1.76681954	     -6.92042268	     -6.69021594	     -0.15404317	      0.99514355	      0.31062449	     -8.19183515	      6.97353628	     -2.80971916	    -20.26736037	      5.39777099	     -4.25212658	      7.09601487	     23.54476773	     -8.51768426	    -10.70378348	     -5.88756788	     -3.60507352	     -9.55185793	      2.13446385	    -11.59129949	      7.28835014	     10.29616959
      0.98766667	     -1.65430016	     -6.73137747	     -6.82058074	     -0.14803337	      0.99524519	      0.31074868	     -7.98911782	      6.62927604	     -2.83190106	    -21.48147046	      4.96514023	     -4.12401806	      7.21266892	     23.28479985	     -8.34661306	    -10.78246040	     -6.29376354	     -3.94631832	     -9.89747510	      2.15691338	    -11.67518082	      6.94086564	     10.35183088
      0.99183333	     -1.53662092	     -6.53453898	     -6.95197724	     -0.14208707	      0.99537609	      0.31082066	     -7.72632160	      6.26527681	     -2.88229434	    -22.80354236	      4.55458606	     -3.97512287	      7.43464123	     23.01899269	     -8.16399771	    -10.87167560	     -6.68972928	     -4.37049090	    -10.29982640	      2.19639341	    -11.77287618	      6.61266120	     10.46784422
      0.99600000	     -1.41717087	     -6.32225287	     -7.06015724	     -0.13615197	      0.99552253	      0.31088405	     -7.42493202	      5.88788337	     -2.94674938	    -24.17071976	      4.01683187	     -3.85057186	      7.72007880	     22.76982763	     -7.96280776	    -10.96308711	     -7.12452442	     -4.73672419	    -10.67184290	      2.24304746	    -11.87091263	      6.23181223	     10.51193661
      1.00016667	     -1.26714579	     -6.11489476	     -7.03847297	     -0.13017642	      0.99570437	      0.31055885	     -7.12655712	      5.49720244	     -3.19491404	    -25.55322765	      3.28844362	     -3.84919314	     14.05182144	     22.50695939	     -7.69019536	    -10.86951965	     -7.54087263	     -5.12112822	    -11.22077422	      3.26118299	    -11.98916826	      5.91479144	     10.44485187
      1.00433333	     -1.21665256	     -5.86154941	     -7.17726016	     -0.12425805	      0.99578236	      0.31068439	     -6.63641350	      5.07122515	     -3.26269018	    -27.09875897	      2.66940724	     -3.71547588	     14.11299778	     22.34216147	     -7.48216607	    -11.08884486	     -8.01579215	     -5.40316037	    -11.39220022	      3.26549044	    -11.99773352	      5.50464553	     10.42385253
      1.00850000	     -1.16074379	     -5.61213955	     -7.26241235	     -0.11837969	      0.99586899	      0.31066213	     -6.11040093	      4.64807476	     -3.38395235	    -28.69102990	      1.94430024	     -3.68424776	     14.21654599	     22.18414525	     -7.24843021	    -11.21667558	     -8.48840178	     -5.67929707	    -11.68219382	      3.26922880	    -12.01182074	      5.11605230	     10.42901542
      1.01266667	     -1.10420948	     -5.33669150	     -7.31813538	     -0.11253712	      0.99594067	      0.31056046	     -5.53489014	      4.19067613	     -3.54103143	    -30.34941774	      1.17240190	     -3.65686145	     14.35580214	     22.03911190	     -6.97634792	    -11.32328483	     -8.97085812	     -5.92532418	    -11.95470538	      3.27127868	    -12.02933620	      4.70052683	     10.38380306
      1.01683333	     -1.05899610	     -5.03906599	     -7.35358567	     -0.10670078	      0.99599051	      0.31039123	     -4.90172153	      3.70266912	     -3.73137146	    -32.06794598	      0.36067514	     -3.65991709	     14.52911576	     21.91171574	     -6.67451228	    -11.42417663	     -9.45691978	     -6.12456537	    -12.21548626	      3.27049647	    -12.02237221	      4.27126680	     10.30442794
      1.02100000	     -1.04344391	     -4.71348467	     -7.37711084	     -0.10088636	      0.99597548	      0.31016122	     -4.18879435	      3.17916074	     -3.94038278	    -33.85065530	     -0.47145684	     -3.68724479	     14.75294557	     21.82464577	     -6.34085685	    -11.52439830	     -9.95154778	     -6.27751467	    -12.47042139	      3.26483334	    -11.97871136	      3.83983271	     10.19880941
      1.02516667	     -1.03110920	     -4.37066951	     -7.37284020	     -0.09510242	      0.99594539	      0.30990560	     -3.43771128	      2.63942909	     -4.15862367	    -35.67133035	     -1.34251224	     -3.77229108	     14.96974637	     21.74461322	     -5.98289320	    -11.58930046	    -10.44141934	     -6.37002688	    -12.64865997	      3.25431220	    -11.93189838	      3.36582622	     10.05591310
      1.02933333	     -1.04637219	     -4.00356805	     -7.35729632	     -0.08932771	      0.99584803	      0.30959311	     -2.61862641	      2.06506515	     -4.39925704	    -37.54240354	     -2.19355660	     -3.87963196	     15.20495468	     21.70480645	     -5.59978047	    -11.68808045	    -10.94830715	     -6.40878161	    -12.83603752	      3.23579240	    -11.84356622	      2.89853434	      9.89745976
      1.03350000	     -1.12624796	     -3.63366036	     -7.32894908	     -0.08366286	      0.99559673	      0.30921303	     -1.68669037	      1.49392744	     -4.62147514	    -39.46646855	     -3.02862831	     -3.98111727	     15.57668809	     21.75031707	     -5.20993147	    -11.70593576	    -11.47961724	     -6.31869179	    -13.03805137	      3.19161584	    -11.69589451	      2.43384015	      9.73514006
      1.03766667	     -1.10810419	     -3.21844533	     -7.26521092	     -0.07789142	      0.99554677	      0.30884953	     -0.86490914	      0.86309632	     -4.87202089	    -41.35706796	     -3.86053395	     -4.24233043	     15.76053967	     21.66446088	     -4.76121296	    -11.80545064	    -11.94698027	     -6.30894872	    -13.07847592	      3.15918159	    -11.64127655	      1.91041313	      9.49589541
      1.04183333	     -1.18084988	     -2.79729826	     -7.21738689	     -0.07225035	      0.99528514	      0.30843828	      0.10293345	      0.23182047	     -5.07517381	    -43.30878693	     -4.61228382	     -4.43518552	     15.98657176	     21.68926761	     -4.31207489	    -11.84700466	    -12.44352653	     -6.13151166	    -13.20778712	      3.09887300	    -11.49337133	      1.39448347	      9.29103625
      1.04600000	     -1.30023240	     -2.37048475	     -7.09637704	     -0.06659241	      0.99492680	      0.30790850	      1.11935640	     -0.40236551	     -5.34091637	    -45.24740620	     -5.29659975	     -4.72692188	     16.21456565	     21.77727802	     -3.83837503	    -11.83848854	    -12.94266923	     -5.95187709	    -13.22446264	      2.99225180	    -11.28690636	      0.89308768	      9.10053288
